<svg width="223" height="83" viewBox="0 0 223 83" fill="none" xmlns="http://www.w3.org/2000/svg">
<g id="gap after e 1" clip-path="url(#clip0_392_25)">
<path id="Vector" d="M217.053 0H5.94667C2.66241 0 0 2.67341 0 5.97122V76.4538C0 79.7516 2.66241 82.425 5.94667 82.425H217.053C220.338 82.425 223 79.7516 223 76.4538V5.97122C223 2.67341 220.338 0 217.053 0Z" fill="#033832"/>
<path id="Vector_2" d="M33.7894 58.4811V70.1846H32.1244V64.9681H25.4308V70.1846H23.7657V58.4811H25.4308V63.5135H32.1244V58.4811H33.7894ZM44.7043 67.2587H38.5103L37.2282 70.1846H35.5131L40.7914 58.4811H42.4398L47.7347 70.1846H45.9864L44.7043 67.2587ZM44.1215 65.9211L41.6073 60.1864L39.093 65.9211H44.1215ZM49.4734 58.4811H51.1385V70.1846H49.4734V58.4811ZM62.4204 70.1846L59.9061 66.5899C59.5957 66.6126 59.3513 66.6233 59.1736 66.6233H56.2931V70.1846H54.628V58.4811H59.1736C60.6834 58.4811 61.8709 58.8434 62.7368 59.5679C63.6026 60.2927 64.0355 61.2898 64.0355 62.5605C64.0355 63.4634 63.8137 64.2325 63.3695 64.8678C62.9259 65.5031 62.2931 65.9659 61.4713 66.2555L64.2353 70.1846H62.4204ZM59.1237 65.2022C60.1785 65.2022 60.9831 64.9741 61.5379 64.5167C62.0933 64.0599 62.3704 63.4078 62.3704 62.5605C62.3704 61.7138 62.0933 61.0671 61.5379 60.6211C60.9831 60.1643 60.1785 59.9356 59.1237 59.9356H56.2931V65.2022H59.1237ZM79.7222 70.3685L78.1737 68.8136C77.1414 69.8168 75.8426 70.3183 74.2774 70.3183C73.5008 70.3183 72.8015 70.1906 72.1795 69.9338C71.558 69.6776 71.0698 69.3211 70.7142 68.8637C70.3705 68.3956 70.198 67.8666 70.198 67.2754C70.198 66.5624 70.4145 65.9325 70.8474 65.3861C71.2916 64.829 72.0189 64.2605 73.0287 63.6807C72.5184 63.1684 72.1575 62.7056 71.9464 62.293C71.7358 61.881 71.63 61.4517 71.63 61.0056C71.63 60.2144 71.9131 59.579 72.4792 59.0997C73.0566 58.6204 73.8225 58.3808 74.777 58.3808C75.6654 58.3808 76.3701 58.5981 76.8916 59.0328C77.4137 59.4675 77.6742 60.064 77.6742 60.8217C77.6742 61.4129 77.4803 61.9419 77.0914 62.41C76.7144 62.8782 76.0817 63.369 75.1932 63.8814L78.0738 66.7571C78.4068 66.1218 78.6459 65.4142 78.7898 64.6337L80.0719 65.0517C79.8721 66.0776 79.5337 66.9691 79.0562 67.7268L80.6214 69.2985L79.7222 70.3685ZM74.777 59.5511C74.2555 59.5511 73.8445 59.6849 73.5448 59.9523C73.2564 60.2091 73.1119 60.5488 73.1119 60.9722C73.1119 61.2731 73.1898 61.5633 73.345 61.8416C73.5115 62.1204 73.8279 62.4996 74.2941 62.9785C75.06 62.5438 75.5875 62.1706 75.8759 61.8583C76.1756 61.5466 76.3255 61.2063 76.3255 60.8384C76.3255 60.4485 76.1869 60.1362 75.9092 59.9021C75.6428 59.6682 75.2658 59.5511 74.777 59.5511ZM74.3773 68.9808C75.5322 68.9808 76.4813 68.613 77.2246 67.8773L73.9111 64.5669C73.1119 65.0129 72.5517 65.4309 72.2294 65.8208C71.919 66.2 71.7632 66.6293 71.7632 67.1082C71.7632 67.6659 72.0023 68.1173 72.4792 68.4625C72.968 68.8082 73.6007 68.9808 74.3773 68.9808ZM90.4803 70.3183C89.6038 70.3183 88.7546 70.1846 87.9328 69.9171C87.1229 69.6388 86.4842 69.2817 86.018 68.847L86.634 67.5429C87.0782 67.9442 87.6444 68.2732 88.3324 68.5294C89.0317 68.7748 89.7477 68.8972 90.4803 68.8972C91.4461 68.8972 92.168 68.736 92.6449 68.4123C93.1224 68.0779 93.3609 67.6379 93.3609 67.0915C93.3609 66.6902 93.2277 66.3672 92.9613 66.1218C92.7062 65.8656 92.3845 65.6703 91.9956 65.5366C91.6185 65.4028 91.0798 65.2524 90.3804 65.0852C89.5039 64.8738 88.7933 64.6618 88.2491 64.4498C87.7163 64.2384 87.2561 63.9148 86.8671 63.4801C86.4901 63.0346 86.301 62.4381 86.301 61.6911C86.301 61.0671 86.4622 60.504 86.7839 60.0025C87.1169 59.501 87.6164 59.0997 88.2824 58.7988C88.9485 58.4978 89.7757 58.3474 90.7634 58.3474C91.452 58.3474 92.1288 58.4365 92.7948 58.6149C93.4608 58.7932 94.0329 59.0496 94.5098 59.384L93.9603 60.7214C93.4721 60.4097 92.9506 60.1756 92.3952 60.0192C91.8403 59.852 91.2962 59.7684 90.7634 59.7684C89.8203 59.7684 89.1096 59.9415 88.6321 60.2867C88.1659 60.6324 87.9328 61.0785 87.9328 61.6242C87.9328 62.0255 88.066 62.3545 88.3324 62.6107C88.5988 62.8561 88.9265 63.0514 89.3148 63.1959C89.7144 63.3296 90.2532 63.4747 90.9299 63.6306C91.807 63.8425 92.5117 64.0545 93.0445 64.2659C93.5774 64.4779 94.0329 64.8009 94.4099 65.2356C94.7988 65.6703 94.9927 66.2555 94.9927 66.9912C94.9927 67.6044 94.8262 68.1675 94.4931 68.6798C94.1601 69.1814 93.6553 69.5827 92.9779 69.8836C92.3012 70.1738 91.4687 70.3183 90.4803 70.3183ZM101.222 64.9848L99.0905 67.1584V70.1846H97.4255V58.4811H99.0905V65.0183L105.418 58.4811H107.316L102.337 63.7476L107.632 70.1846H105.684L101.222 64.9848ZM109.393 58.4811H111.058V70.1846H109.393V58.4811ZM124.571 58.4811V70.1846H123.206L116.213 61.457V70.1846H114.548V58.4811H115.913L122.906 67.2085V58.4811H124.571ZM135.928 70.3183C135.051 70.3183 134.202 70.1846 133.381 69.9171C132.57 69.6388 131.932 69.2817 131.466 68.847L132.082 67.5429C132.526 67.9442 133.092 68.2732 133.78 68.5294C134.48 68.7748 135.196 68.8972 135.928 68.8972C136.894 68.8972 137.615 68.736 138.093 68.4123C138.57 68.0779 138.809 67.6379 138.809 67.0915C138.809 66.6902 138.676 66.3672 138.409 66.1218C138.154 65.8656 137.832 65.6703 137.444 65.5366C137.066 65.4028 136.528 65.2524 135.828 65.0852C134.951 64.8738 134.241 64.6618 133.697 64.4498C133.164 64.2384 132.703 63.9148 132.315 63.4801C131.938 63.0346 131.749 62.4381 131.749 61.6911C131.749 61.0671 131.91 60.504 132.232 60.0025C132.565 59.501 133.064 59.0997 133.73 58.7988C134.396 58.4978 135.224 58.3474 136.211 58.3474C136.899 58.3474 137.577 58.4365 138.243 58.6149C138.909 58.7932 139.48 59.0496 139.958 59.384L139.408 60.7214C138.92 60.4097 138.398 60.1756 137.843 60.0192C137.288 59.852 136.744 59.7684 136.211 59.7684C135.268 59.7684 134.558 59.9415 134.08 60.2867C133.614 60.6324 133.381 61.0785 133.381 61.6242C133.381 62.0255 133.514 62.3545 133.78 62.6107C134.047 62.8561 134.374 63.0514 134.763 63.1959C135.162 63.3296 135.701 63.4747 136.378 63.6306C137.255 63.8425 137.96 64.0545 138.493 64.2659C139.025 64.4779 139.48 64.8009 139.858 65.2356C140.246 65.6703 140.441 66.2555 140.441 66.9912C140.441 67.6044 140.274 68.1675 139.941 68.6798C139.608 69.1814 139.103 69.5827 138.426 69.8836C137.749 70.1738 136.916 70.3183 135.928 70.3183ZM145.025 59.9356H141.029V58.4811H150.67V59.9356H146.673V70.1846H145.025V59.9356ZM157.1 70.3183C155.546 70.3183 154.336 69.8729 153.47 68.9808C152.605 68.0893 152.172 66.8073 152.172 65.1353V58.4811H153.837V65.0684C153.837 67.5764 154.93 68.8303 157.117 68.8303C158.183 68.8303 158.998 68.524 159.565 67.9107C160.131 67.2867 160.414 66.3391 160.414 65.0684V58.4811H162.029V65.1353C162.029 66.8186 161.596 68.106 160.73 68.9975C159.864 69.8783 158.655 70.3183 157.1 70.3183ZM165.443 58.4811H170.355C171.587 58.4811 172.681 58.7263 173.635 59.2168C174.589 59.7072 175.328 60.3983 175.85 61.2898C176.382 62.1706 176.649 63.1851 176.649 64.3328C176.649 65.481 176.382 66.5009 175.85 67.3924C175.328 68.2732 174.589 68.9587 173.635 69.4489C172.681 69.9398 171.587 70.1846 170.355 70.1846H165.443V58.4811ZM170.255 68.73C171.199 68.73 172.025 68.5461 172.736 68.1783C173.457 67.8104 174.013 67.2981 174.401 66.6401C174.789 65.9713 174.984 65.2022 174.984 64.3328C174.984 63.4634 174.789 62.7003 174.401 62.0422C174.013 61.3734 173.457 60.8551 172.736 60.4873C172.025 60.1195 171.199 59.9356 170.255 59.9356H167.108V68.73H170.255ZM179.199 58.4811H180.864V70.1846H179.199V58.4811ZM189.615 70.3183C188.439 70.3183 187.378 70.0622 186.435 69.5492C185.491 69.0256 184.747 68.3066 184.204 67.3924C183.671 66.4788 183.405 65.459 183.405 64.3328C183.405 63.2072 183.671 62.1873 184.204 61.2731C184.747 60.3595 185.491 59.6459 186.435 59.1332C187.378 58.6093 188.439 58.3474 189.615 58.3474C190.781 58.3474 191.835 58.6093 192.779 59.1332C193.722 59.6459 194.461 60.3595 194.994 61.2731C195.526 62.176 195.793 63.1959 195.793 64.3328C195.793 65.4697 195.526 66.4956 194.994 67.4092C194.461 68.312 193.722 69.0256 192.779 69.5492C191.835 70.0622 190.781 70.3183 189.615 70.3183ZM189.615 68.8303C190.47 68.8303 191.236 68.6356 191.913 68.2451C192.601 67.8552 193.139 67.3202 193.528 66.6401C193.928 65.9492 194.128 65.1801 194.128 64.3328C194.128 63.4861 193.928 62.7223 193.528 62.0422C193.139 61.3514 192.601 60.811 191.913 60.4204C191.236 60.0305 190.47 59.8353 189.615 59.8353C188.76 59.8353 187.984 60.0305 187.284 60.4204C186.596 60.811 186.052 61.3514 185.653 62.0422C185.264 62.7223 185.07 63.4861 185.07 64.3328C185.07 65.1801 185.264 65.9492 185.653 66.6401C186.052 67.3202 186.596 67.8552 187.284 68.2451C187.984 68.6356 188.76 68.8303 189.615 68.8303Z" fill="#033832"/>
<path id="Vector_3" d="M45.0648 48.3019H41.1647L28.1924 23.6761L15.326 48.3019H11.3198L26.1575 19.9727V19.9514L28.2135 16.099L30.1212 19.7386L45.0648 48.3019ZM68.0632 28.3161C68.0632 32.3459 66.6145 35.3824 63.7179 37.4257C61.909 38.7027 60.1071 39.4477 58.3128 39.6605L67.1943 48.3019H62.3823L53.5647 39.7244L50.4276 36.5956H56.0871C57.6133 36.5956 59.1112 36.2338 60.5811 35.5102C63.3361 34.1337 64.714 31.7357 64.714 28.3161C64.714 24.8964 63.3361 22.4984 60.5811 21.122C59.1253 20.3984 57.6274 20.0366 56.0871 20.0366H49.177V48.3019H45.8915V16.7588H48.1172H56.0871C58.0796 16.7588 60.0792 17.2554 62.0856 18.2487C66.0704 20.1927 68.0632 23.5484 68.0632 28.3161ZM93.2657 20.0578H82.9221V48.3019H79.6366V20.0578H69.3351V16.7588H93.2657V20.0578ZM118.744 45.0028V48.3019H94.5591V32.5197V16.7375H97.8447V45.0028H118.744ZM153.803 48.3019H149.904L136.931 23.6761L124.065 48.3019H120.058L134.896 19.9727V19.9514L136.952 16.099L138.86 19.7386L153.803 48.3019ZM183.161 16.7375V48.3019H182.398L180.023 45.9606L157.916 23.9315V48.3019H154.63V15.9926L157.767 19.1214L179.875 41.1504V16.7375H183.161ZM210.81 39.6179H192.411V36.3189H210.81V39.6179ZM210.894 20.0366H189.973V44.9816H210.894V48.3019H186.603V16.6949H210.894V20.0366Z" fill="url(#paint0_linear_392_25)"/>
<path id="Vector_4" d="M18.6552 71.1913C17.7782 71.1913 16.929 71.0576 16.1076 70.7901C15.2973 70.5112 14.659 70.1547 14.1928 69.72L14.8089 68.4159C15.2529 68.8172 15.819 69.1462 16.5073 69.4023C17.2066 69.6478 17.9226 69.7702 18.6552 69.7702C19.6209 69.7702 20.3424 69.6083 20.8198 69.2853C21.2971 68.9509 21.5358 68.5108 21.5358 67.9645C21.5358 67.5632 21.4025 67.2402 21.1361 66.9947C20.8808 66.7386 20.5589 66.5433 20.1704 66.4096C19.793 66.2758 19.2546 66.1253 18.5553 65.9581C17.6783 65.7462 16.9679 65.5348 16.424 65.3228C15.8912 65.1108 15.4305 64.7878 15.042 64.3531C14.6646 63.907 14.4759 63.3111 14.4759 62.5641C14.4759 61.9401 14.6368 61.377 14.9587 60.8754C15.2918 60.3739 15.7913 59.9726 16.4573 59.6716C17.1233 59.3707 17.9503 59.2202 18.9382 59.2202C19.6265 59.2202 20.3036 59.3094 20.9696 59.4877C21.6357 59.6661 22.2073 59.9224 22.6846 60.2568L22.1352 61.5944C21.6467 61.2821 21.125 61.048 20.57 60.8922C20.015 60.725 19.4711 60.6414 18.9382 60.6414C17.9947 60.6414 17.2842 60.8139 16.807 61.1597C16.3407 61.5054 16.1076 61.9509 16.1076 62.4972C16.1076 62.8985 16.2408 63.2275 16.5073 63.4837C16.7737 63.7291 17.1011 63.9237 17.4896 64.0688C17.8893 64.2026 18.4276 64.3477 19.1048 64.5036C19.9817 64.7155 20.6866 64.9269 21.2194 65.1389C21.7522 65.3509 22.2073 65.6739 22.5847 66.1086C22.9732 66.5433 23.1675 67.1285 23.1675 67.8642C23.1675 68.4774 23.001 69.0399 22.668 69.5528C22.335 70.0544 21.8299 70.4557 21.1528 70.7566C20.4756 71.0462 19.6431 71.1913 18.6552 71.1913ZM30.5857 65.8578L28.4545 68.0314V71.0576H26.7894V59.354H28.4545V65.8913L34.7817 59.354H36.6799L31.7013 64.6206L36.9963 71.0576H35.0481L30.5857 65.8578ZM39.9464 59.354H41.6115V71.0576H39.9464V59.354ZM56.3139 59.354V71.0576H54.9486L47.9553 62.33V71.0576H46.2902V59.354H47.6556L54.6489 68.0815V59.354H56.3139ZM75.1784 71.2415L73.6299 69.6866C72.5975 70.6897 71.2988 71.1913 69.7336 71.1913C68.9564 71.1913 68.257 71.0629 67.6356 70.8068C67.0136 70.5506 66.5254 70.1935 66.1704 69.7367C65.8261 69.2686 65.6542 68.7389 65.6542 68.1484C65.6542 67.4348 65.8707 66.8055 66.3036 66.2591C66.7472 65.702 67.4745 65.1335 68.4848 64.5537C67.974 64.0408 67.613 63.5786 67.4025 63.166C67.1914 62.7534 67.0862 62.3247 67.0862 61.8786C67.0862 61.0874 67.3692 60.4521 67.9353 59.9726C68.5122 59.4933 69.2781 59.2537 70.2331 59.2537C71.121 59.2537 71.8256 59.471 72.3478 59.9057C72.8693 60.3404 73.1303 60.9369 73.1303 61.6947C73.1303 62.2852 72.9359 62.8149 72.5476 63.283C72.17 63.7512 71.5372 64.2414 70.6494 64.7543L73.53 67.6301C73.863 66.9947 74.1014 66.2872 74.2459 65.5067L75.528 65.9247C75.3282 66.95 74.9893 67.8421 74.5123 68.5998L76.0775 70.1714L75.1784 71.2415ZM70.2331 60.424C69.711 60.424 69.3007 60.5578 69.001 60.8253C68.712 61.0814 68.5681 61.4218 68.5681 61.8452C68.5681 62.1461 68.6454 62.4357 68.8012 62.7146C68.9677 62.9934 69.284 63.372 69.7503 63.8515C70.5162 63.4168 71.0431 63.0436 71.3321 62.7313C71.6318 62.419 71.7816 62.0792 71.7816 61.7114C71.7816 61.3215 71.6425 61.0092 71.3654 60.7751C71.099 60.541 70.7214 60.424 70.2331 60.424ZM69.8335 69.8538C70.9878 69.8538 71.9368 69.4859 72.6808 68.7503L69.3673 65.4398C68.5681 65.8859 68.0073 66.3039 67.6856 66.6938C67.3746 67.073 67.2194 67.5017 67.2194 67.9812C67.2194 68.5383 67.4578 68.9897 67.9353 69.3355C68.4236 69.6812 69.0563 69.8538 69.8335 69.8538ZM94.9415 59.354V71.0576H93.2765V65.8411H86.5829V71.0576H84.9178V59.354H86.5829V64.3865H93.2765V59.354H94.9415ZM107.046 68.1317H100.852L99.5698 71.0576H97.8548L103.133 59.354H104.781L110.076 71.0576H108.328L107.046 68.1317ZM106.463 66.7941L103.949 61.0593L101.435 66.7941H106.463ZM113.005 59.354H114.67V71.0576H113.005V59.354ZM127.141 71.0576L124.627 67.4629C124.316 67.485 124.071 67.4963 123.894 67.4963H121.013V71.0576H119.348V59.354H123.894C125.403 59.354 126.591 59.7164 127.457 60.4407C128.323 61.165 128.756 62.1628 128.756 63.4335C128.756 64.3364 128.534 65.1055 128.09 65.7408C127.646 66.3761 127.013 66.8389 126.192 67.1285L128.956 71.0576H127.141ZM123.844 66.0752C124.898 66.0752 125.703 65.8465 126.258 65.3897C126.813 64.9329 127.091 64.2808 127.091 63.4335C127.091 62.5862 126.813 61.9401 126.258 61.4941C125.703 61.0373 124.898 60.8086 123.844 60.8086H121.013V66.0752H123.844ZM141.693 71.1913C140.816 71.1913 139.967 71.0576 139.145 70.7901C138.335 70.5112 137.697 70.1547 137.231 69.72L137.847 68.4159C138.291 68.8172 138.857 69.1462 139.545 69.4023C140.244 69.6478 140.96 69.7702 141.693 69.7702C142.659 69.7702 143.38 69.6083 143.858 69.2853C144.335 68.9509 144.574 68.5108 144.574 67.9645C144.574 67.5632 144.44 67.2402 144.174 66.9947C143.919 66.7386 143.597 66.5433 143.208 66.4096C142.831 66.2758 142.292 66.1253 141.593 65.9581C140.716 65.7462 140.006 65.5348 139.462 65.3228C138.929 65.1108 138.468 64.7878 138.08 64.3531C137.702 63.907 137.514 63.3111 137.514 62.5641C137.514 61.9401 137.675 61.377 137.997 60.8754C138.33 60.3739 138.829 59.9726 139.495 59.6716C140.161 59.3707 140.988 59.2202 141.976 59.2202C142.664 59.2202 143.341 59.3094 144.007 59.4877C144.673 59.6661 145.245 59.9224 145.722 60.2568L145.173 61.5944C144.685 61.2821 144.163 61.048 143.608 60.8922C143.053 60.725 142.509 60.6414 141.976 60.6414C141.032 60.6414 140.322 60.8139 139.845 61.1597C139.379 61.5054 139.145 61.9509 139.145 62.4972C139.145 62.8985 139.279 63.2275 139.545 63.4837C139.812 63.7291 140.139 63.9237 140.527 64.0688C140.927 64.2026 141.465 64.3477 142.143 64.5036C143.02 64.7155 143.724 64.9269 144.257 65.1389C144.79 65.3509 145.245 65.6739 145.623 66.1086C146.011 66.5433 146.205 67.1285 146.205 67.8642C146.205 68.4774 146.039 69.0399 145.706 69.5528C145.373 70.0544 144.868 70.4557 144.191 70.7566C143.513 71.0462 142.681 71.1913 141.693 71.1913ZM151.979 60.8086H147.983V59.354H157.624V60.8086H153.627V71.0576H151.979V60.8086ZM165.244 71.1913C163.69 71.1913 162.48 70.7453 161.614 69.8538C160.748 68.9623 160.315 67.6802 160.315 66.0083V59.354H161.98V65.9414C161.98 68.4493 163.074 69.7033 165.26 69.7033C166.326 69.7033 167.142 69.397 167.708 68.7837C168.274 68.1597 168.557 67.2121 168.557 65.9414V59.354H170.172V66.0083C170.172 67.6916 169.739 68.979 168.873 69.8705C168.008 70.7512 166.798 71.1913 165.244 71.1913ZM174.776 59.354H179.687C180.92 59.354 182.013 59.5992 182.968 60.0896C183.922 60.5799 184.661 61.2713 185.182 62.1628C185.715 63.0436 185.981 64.0575 185.981 65.2058C185.981 66.354 185.715 67.3739 185.182 68.2654C184.661 69.1462 183.922 69.8317 182.968 70.3219C182.013 70.8121 180.92 71.0576 179.687 71.0576H174.776V59.354ZM179.588 69.603C180.531 69.603 181.358 69.4191 182.069 69.0512C182.79 68.6834 183.345 68.1705 183.734 67.5131C184.122 66.8443 184.316 66.0752 184.316 65.2058C184.316 64.3364 184.122 63.5726 183.734 62.9152C183.345 62.2464 182.79 61.7281 182.069 61.3603C181.358 60.9925 180.531 60.8086 179.588 60.8086H176.441V69.603H179.588ZM189.721 59.354H191.386V71.0576H189.721V59.354ZM201.327 71.1913C200.15 71.1913 199.09 70.9352 198.147 70.4222C197.203 69.8986 196.459 69.1796 195.915 68.2654C195.383 67.3512 195.116 66.3313 195.116 65.2058C195.116 64.0802 195.383 63.0603 195.915 62.1461C196.459 61.2319 197.203 60.519 198.147 60.006C199.09 59.4822 200.15 59.2202 201.327 59.2202C202.492 59.2202 203.547 59.4822 204.49 60.006C205.434 60.519 206.172 61.2319 206.705 62.1461C207.238 63.049 207.504 64.0688 207.504 65.2058C207.504 66.3427 207.238 67.3679 206.705 68.2821C206.172 69.185 205.434 69.8986 204.49 70.4222C203.547 70.9352 202.492 71.1913 201.327 71.1913ZM201.327 69.7033C202.181 69.7033 202.947 69.508 203.625 69.1181C204.313 68.7282 204.851 68.1932 205.24 67.5131C205.639 66.8222 205.839 66.0531 205.839 65.2058C205.839 64.3584 205.639 63.5953 205.24 62.9152C204.851 62.2243 204.313 61.6833 203.625 61.2934C202.947 60.9035 202.181 60.7082 201.327 60.7082C200.472 60.7082 199.695 60.9035 198.996 61.2934C198.307 61.6833 197.764 62.2243 197.364 62.9152C196.975 63.5953 196.781 64.3584 196.781 65.2058C196.781 66.0531 196.975 66.8222 197.364 67.5131C197.764 68.1932 198.307 68.7282 198.996 69.1181C199.695 69.508 200.472 69.7033 201.327 69.7033Z" fill="white"/>
</g>
<defs>
<linearGradient id="paint0_linear_392_25" x1="11.2987" y1="37.0216" x2="212.296" y2="37.0216" gradientUnits="userSpaceOnUse">
<stop stop-color="#AE8625"/>
<stop offset="0.18101" stop-color="#FEF7A3"/>
<stop offset="0.5" stop-color="#FFEFA2"/>
<stop offset="0.725" stop-color="#FFE29C"/>
<stop offset="0.898047" stop-color="#FFDC7E"/>
</linearGradient>
<clipPath id="clip0_392_25">
<rect width="223" height="83" fill="white"/>
</clipPath>
</defs>
</svg>
